<svg xmlns="http://www.w3.org/2000/svg" viewBox="0 0 1000 820" width="1000" height="820" font-family="Georgia, 'Times New Roman', serif">
  <defs>
    <linearGradient id="parchment" x1="0" y1="0" x2="1" y2="1">
      <stop offset="0%" stop-color="#f7f0dc"/>
      <stop offset="100%" stop-color="#e9dab8"/>
    </linearGradient>
    <radialGradient id="vinyl" cx="35%" cy="35%" r="75%">
      <stop offset="0%" stop-color="#4a4a4a"/>
      <stop offset="70%" stop-color="#1c1c1c"/>
      <stop offset="100%" stop-color="#0a0a0a"/>
    </radialGradient>
    <marker id="arrow" viewBox="0 0 10 10" refX="8" refY="5" markerWidth="7" markerHeight="7" orient="auto-start-reverse">
      <path d="M0,0 L10,5 L0,10 z" fill="#6b5b45"/>
    </marker>
  </defs>

  <rect x="0" y="0" width="1000" height="820" fill="url(#parchment)"/>
  <rect x="16" y="16" width="968" height="768" fill="none" stroke="#2b2118" stroke-width="3"/>

  <text x="500" y="55" text-anchor="middle" font-size="26" letter-spacing="2" fill="#2b2118">THE ORCHESTRA MODEL OF AGENT MEMORY</text>
  <text x="500" y="78" text-anchor="middle" font-size="14" font-style="italic" fill="#5b4d3a">independent musicians &#183; one shared score &#183; no shared brain</text>

  <rect x="415" y="100" width="170" height="95" rx="6" fill="#f5ecd8" stroke="#2b2118" stroke-width="3"/>
  <line x1="435" y1="120" x2="565" y2="120" stroke="#2b2118" stroke-width="1.5"/>
  <line x1="435" y1="133" x2="565" y2="133" stroke="#2b2118" stroke-width="1.5"/>
  <line x1="435" y1="146" x2="565" y2="146" stroke="#2b2118" stroke-width="1.5"/>
  <line x1="435" y1="159" x2="565" y2="159" stroke="#2b2118" stroke-width="1.5"/>
  <line x1="435" y1="172" x2="565" y2="172" stroke="#2b2118" stroke-width="1.5"/>
  <text x="500" y="218" text-anchor="middle" font-size="15" font-weight="bold" fill="#2b2118">MOTHER-MOULT</text>
  <text x="500" y="235" text-anchor="middle" font-size="12" font-style="italic" fill="#5b4d3a">the Urtext &#183; static &#183; v0-draft</text>

  <line x1="500" y1="195" x2="500" y2="255" stroke="#2b2118" stroke-width="2"/>

  <text x="500" y="262" text-anchor="middle" font-size="15" font-weight="bold" fill="#2b2118">MOULTBOOK</text>
  <path d="M100,300 C 220,270 280,330 400,300 C 520,270 580,330 700,300 C 800,278 860,320 900,300"
        fill="none" stroke="#3a2f22" stroke-width="5"/>
  <circle cx="150" cy="296" r="4" fill="#2b2118"/>
  <circle cx="250" cy="282" r="4" fill="#2b2118"/>
  <circle cx="350" cy="316" r="4" fill="#2b2118"/>
  <circle cx="450" cy="300" r="4" fill="#2b2118"/>
  <circle cx="550" cy="284" r="4" fill="#2b2118"/>
  <circle cx="650" cy="314" r="4" fill="#2b2118"/>
  <circle cx="750" cy="296" r="4" fill="#2b2118"/>
  <circle cx="850" cy="288" r="4" fill="#2b2118"/>
  <text x="500" y="350" text-anchor="middle" font-size="12" font-style="italic" fill="#5b4d3a">the concert archive &#183; always growing, never edited</text>

  <line x1="500" y1="358" x2="500" y2="415" stroke="#2b2118" stroke-width="2"/>
  <text x="500" y="405" text-anchor="middle" font-size="13" font-weight="bold" fill="#2b2118">AKB &#8212; the shared score, not a shared brain</text>

  <line x1="230" y1="415" x2="770" y2="415" stroke="#6b5b45" stroke-width="1.5" stroke-dasharray="4,4"/>
  <line x1="230" y1="415" x2="230" y2="440" stroke="#6b5b45" stroke-width="1.5" stroke-dasharray="4,4"/>
  <line x1="500" y1="415" x2="500" y2="440" stroke="#6b5b45" stroke-width="1.5" stroke-dasharray="4,4"/>
  <line x1="770" y1="415" x2="770" y2="440" stroke="#6b5b45" stroke-width="1.5" stroke-dasharray="4,4"/>

  <g>
    <line x1="230" y1="500" x2="230" y2="440" stroke="#2b2118" stroke-width="3"/>
    <line x1="195" y1="500" x2="265" y2="500" stroke="#2b2118" stroke-width="3"/>
    <polygon points="195,440 265,440 230,410" fill="#b5651d" stroke="#2b2118" stroke-width="2"/>
    <circle cx="212" cy="530" r="10" fill="none" stroke="#2b2118" stroke-width="2"/>
    <line x1="219" y1="537" x2="230" y2="548" stroke="#2b2118" stroke-width="2"/>
    <circle cx="248" cy="528" r="3" fill="#2b2118"/>
    <circle cx="260" cy="540" r="3" fill="#2b2118"/>
    <circle cx="252" cy="552" r="3" fill="#2b2118"/>
    <line x1="248" y1="528" x2="260" y2="540" stroke="#2b2118" stroke-width="1.5"/>
    <line x1="260" y1="540" x2="252" y2="552" stroke="#2b2118" stroke-width="1.5"/>
    <line x1="248" y1="528" x2="252" y2="552" stroke="#2b2118" stroke-width="1.5"/>
    <text x="230" y="575" text-anchor="middle" font-size="12" font-weight="bold" fill="#2b2118">Agent A</text>
    <text x="230" y="591" text-anchor="middle" font-size="11" font-style="italic" fill="#5b4d3a">local-file-bridge.js</text>
  </g>

  <g>
    <line x1="500" y1="500" x2="500" y2="440" stroke="#2b2118" stroke-width="3"/>
    <line x1="465" y1="500" x2="535" y2="500" stroke="#2b2118" stroke-width="3"/>
    <polygon points="465,440 535,440 500,410" fill="#2f6f6f" stroke="#2b2118" stroke-width="2"/>
    <circle cx="482" cy="530" r="10" fill="none" stroke="#2b2118" stroke-width="2"/>
    <line x1="489" y1="537" x2="500" y2="548" stroke="#2b2118" stroke-width="2"/>
    <circle cx="518" cy="528" r="3" fill="#2b2118"/>
    <circle cx="530" cy="540" r="3" fill="#2b2118"/>
    <circle cx="522" cy="552" r="3" fill="#2b2118"/>
    <line x1="518" y1="528" x2="530" y2="540" stroke="#2b2118" stroke-width="1.5"/>
    <line x1="530" y1="540" x2="522" y2="552" stroke="#2b2118" stroke-width="1.5"/>
    <line x1="518" y1="528" x2="522" y2="552" stroke="#2b2118" stroke-width="1.5"/>
    <text x="500" y="575" text-anchor="middle" font-size="12" font-weight="bold" fill="#2b2118">Agent B</text>
    <text x="500" y="591" text-anchor="middle" font-size="11" font-style="italic" fill="#5b4d3a">mnemosyne-bridge (optional)</text>
  </g>

  <g>
    <line x1="770" y1="500" x2="770" y2="440" stroke="#2b2118" stroke-width="3"/>
    <line x1="735" y1="500" x2="805" y2="500" stroke="#2b2118" stroke-width="3"/>
    <polygon points="735,440 805,440 770,410" fill="#8a3b4a" stroke="#2b2118" stroke-width="2"/>
    <circle cx="752" cy="530" r="10" fill="none" stroke="#2b2118" stroke-width="2"/>
    <line x1="759" y1="537" x2="770" y2="548" stroke="#2b2118" stroke-width="2"/>
    <circle cx="788" cy="528" r="3" fill="#2b2118"/>
    <circle cx="800" cy="540" r="3" fill="#2b2118"/>
    <circle cx="792" cy="552" r="3" fill="#2b2118"/>
    <line x1="788" y1="528" x2="800" y2="540" stroke="#2b2118" stroke-width="1.5"/>
    <line x1="800" y1="540" x2="792" y2="552" stroke="#2b2118" stroke-width="1.5"/>
    <line x1="788" y1="528" x2="792" y2="552" stroke="#2b2118" stroke-width="1.5"/>
    <text x="770" y="575" text-anchor="middle" font-size="12" font-weight="bold" fill="#2b2118">Agent C</text>
    <text x="770" y="591" text-anchor="middle" font-size="11" font-style="italic" fill="#5b4d3a">supermemory-bridge (optional)</text>
  </g>

  <path d="M470,610 C 380,520 340,350 415,205" fill="none" stroke="#6b5b45" stroke-width="1.5" stroke-dasharray="3,5" marker-end="url(#arrow)"/>
  <path d="M535,608 C 640,540 660,430 640,335" fill="none" stroke="#6b5b45" stroke-width="1.5" stroke-dasharray="3,5" marker-end="url(#arrow)"/>

  <circle cx="500" cy="660" r="58" fill="url(#vinyl)" stroke="#2b2118" stroke-width="2"/>
  <circle cx="500" cy="660" r="46" fill="none" stroke="#3a3a3a" stroke-width="1"/>
  <circle cx="500" cy="660" r="34" fill="none" stroke="#3a3a3a" stroke-width="1"/>
  <circle cx="500" cy="660" r="22" fill="none" stroke="#3a3a3a" stroke-width="1"/>
  <circle cx="500" cy="660" r="6" fill="#e9dab8" stroke="#2b2118" stroke-width="1.5"/>

  <text x="500" y="735" text-anchor="middle" font-size="14" font-weight="bold" fill="#2b2118">KNOWLEDGE MOULT</text>
  <text x="500" y="752" text-anchor="middle" font-size="11" font-style="italic" fill="#5b4d3a">the pressed recording &#8212; cites its own lineage, on-chain</text>
  <text x="500" y="770" text-anchor="middle" font-size="10" fill="#5b4d3a">kmoult:63cfbdde67&#8230;b381e16</text>
</svg>
